<svg xmlns="http://www.w3.org/2000/svg" viewBox="0 0 400 300" width="406" height="306" class="illustration styles_illustrationTablet__1DWOa"><g id="_522_linkedin_flatline" data-name="#522_linkedin_flatline"><path d="M353.73,63.07V236.94a10.54,10.54,0,0,1-10.54,10.54H56.81a10.54,10.54,0,0,1-10.54-10.54V63.07A10.54,10.54,0,0,1,56.81,52.52H343.19A10.54,10.54,0,0,1,353.73,63.07Z" fill="#fff"></path><path d="M343.19,52.52a10.54,10.54,0,0,1,10.54,10.55V236.94a10.54,10.54,0,0,1-10.54,10.54H56.81a10.54,10.54,0,0,1-10.54-10.54V63.07A10.54,10.54,0,0,1,56.81,52.52H343.19m0-1H56.81A11.56,11.56,0,0,0,45.27,63.07V236.94a11.56,11.56,0,0,0,11.54,11.54H343.19a11.56,11.56,0,0,0,11.54-11.54V63.07a11.56,11.56,0,0,0-11.54-11.55Z" fill="#231f20"></path><path d="M353.73,63.07V80.15H46.27V63.07A10.54,10.54,0,0,1,56.81,52.52H343.19A10.54,10.54,0,0,1,353.73,63.07Z" fill="#231f20"></path><rect x="46.27" y="80.15" width="307.46" height="71.43" fill="#136ac1"></rect><path d="M353.73,80.15v71.43H46.27V80.15H353.73m0-1H46.27a1,1,0,0,0-1,1v71.43a1,1,0,0,0,1,1H353.73a1,1,0,0,0,1-1V80.15a1,1,0,0,0-1-1Z" fill="#231f20"></path><path d="M157.79,135.52a44,44,0,0,1-4.19,18.81,44.44,44.44,0,0,1-15.53,18l-.07,0c-.65.44-1.32.85-2,1.25l-.13.08a43.89,43.89,0,0,1-14.8,5.4,44.6,44.6,0,0,1-17.24-.43A44.27,44.27,0,0,1,98.6,93.85h0a44.26,44.26,0,0,1,59.18,41.67Z" fill="#fff"></path><path d="M113.54,91.27a44.24,44.24,0,0,1,24.53,81.07l-.07,0c-.65.44-1.32.85-2,1.25l-.13.08a43.89,43.89,0,0,1-14.8,5.4,44.6,44.6,0,0,1-17.24-.43A44.27,44.27,0,0,1,98.6,93.85h0a44.14,44.14,0,0,1,14.93-2.58m0-1a45,45,0,0,0-15.2,2.62l-.08,0a45.25,45.25,0,0,0-10,80.13,44.89,44.89,0,0,0,15.35,6.63,45.84,45.84,0,0,0,17.63.44,44.9,44.9,0,0,0,15.11-5.51l.19-.12c.79-.46,1.42-.86,2-1.24l.14-.1a45.41,45.41,0,0,0,15.83-18.38,45.23,45.23,0,0,0-41-64.49Z" fill="#231f20"></path><path d="M332,204.83H65.75a.51.51,0,0,1-.5-.5.5.5,0,0,1,.5-.5H332a.5.5,0,0,1,.5.5A.51.51,0,0,1,332,204.83Z" fill="#d1d3d4"></path><path d="M285.52,217.1H65.75a.5.5,0,0,1-.5-.5.51.51,0,0,1,.5-.5H285.52a.5.5,0,0,1,.5.5A.5.5,0,0,1,285.52,217.1Z" fill="#d1d3d4"></path><rect x="249.27" y="158.24" width="42.67" height="13.51" rx="0.83" fill="#136ac1"></rect><rect x="301.09" y="158.24" width="34.4" height="13.51" rx="0.93" fill="#d1d3d4"></rect><rect x="100.1" y="59.48" width="108.96" height="13.71" fill="#fff"></rect><path d="M209.07,73.69h-109a.5.5,0,0,1-.5-.5V59.48a.5.5,0,0,1,.5-.5h109a.5.5,0,0,1,.5.5V73.19A.5.5,0,0,1,209.07,73.69Zm-108.47-1h108V60h-108Z" fill="#231f20"></path><circle cx="285.19" cy="66.33" r="6.86" fill="#fff"></circle><path d="M285.19,73.69a7.36,7.36,0,1,1,7.35-7.36A7.37,7.37,0,0,1,285.19,73.69Zm0-13.71a6.36,6.36,0,1,0,6.35,6.35A6.36,6.36,0,0,0,285.19,60Z" fill="#231f20"></path><circle cx="308.6" cy="66.33" r="6.86" fill="#fff"></circle><path d="M308.6,73.69A7.36,7.36,0,1,1,316,66.33,7.37,7.37,0,0,1,308.6,73.69Zm0-13.71A6.36,6.36,0,1,0,315,66.33,6.36,6.36,0,0,0,308.6,60Z" fill="#231f20"></path><circle cx="332.01" cy="66.33" r="6.86" fill="#fff"></circle><path d="M332,73.69a7.36,7.36,0,1,1,7.36-7.36A7.37,7.37,0,0,1,332,73.69ZM332,60a6.36,6.36,0,1,0,6.36,6.35A6.36,6.36,0,0,0,332,60Z" fill="#231f20"></path><rect x="69.71" y="59.01" width="14.65" height="14.65" fill="#fff"></rect><path d="M84.25,74.82h-14l-.14,0a1.51,1.51,0,0,1-1.31-1.21c0-.08,0-.16,0-.24v-14s0-.08,0-.12a1.44,1.44,0,0,1,.78-1.16,1.61,1.61,0,0,1,.86-.2H84.05a1.67,1.67,0,0,1,1.06.31,1.62,1.62,0,0,1,.62,1.37V72.81c0,.21,0,.41,0,.62a1.51,1.51,0,0,1-1.2,1.34ZM78.09,65v-.51a.43.43,0,0,0-.48-.47H75.77a.46.46,0,0,0-.52.52v7.86a.47.47,0,0,0,.53.53h1.79a.46.46,0,0,0,.52-.53v-4a2.92,2.92,0,0,1,.29-1.27,1.37,1.37,0,0,1,1.4-.79,1.25,1.25,0,0,1,1.17,1,6.23,6.23,0,0,1,.13,1.15c0,1.31,0,2.62,0,3.93,0,.35.17.51.52.51h1.84a.48.48,0,0,0,.55-.55c0-1.38,0-2.77,0-4.16a7.86,7.86,0,0,0-.22-2.05,2.84,2.84,0,0,0-1.52-2,3.9,3.9,0,0,0-2-.27,2.67,2.67,0,0,0-1.41.47C78.54,64.61,78.32,64.84,78.09,65ZM71.2,68.5v3.91a.49.49,0,0,0,.55.56h1.68c.44,0,.61-.17.61-.61V64.62a.49.49,0,0,0-.55-.56H71.74a.47.47,0,0,0-.54.54Zm3.24-7a1.83,1.83,0,0,0-1.82-1.84,1.84,1.84,0,1,0,1.82,1.84Z" fill="#136ac1"></path><path d="M106.8,68.74a3.8,3.8,0,0,1-2.7-1.12A3.84,3.84,0,0,1,103,64.91a3.82,3.82,0,0,1,6.52-2.7,3.76,3.76,0,0,1,1.12,2.7,3.82,3.82,0,0,1-3.82,3.83Zm0-6.65a2.81,2.81,0,0,0-2,.83,2.81,2.81,0,0,0,0,4,2.9,2.9,0,0,0,4,0,2.84,2.84,0,0,0,0-4A2.83,2.83,0,0,0,106.8,62.09Z" fill="#d1d3d4"></path><path d="M113,71.58a.51.51,0,0,1-.36-.15l-3.81-3.81a.5.5,0,0,1,0-.71.48.48,0,0,1,.7,0l3.82,3.81a.51.51,0,0,1,0,.71A.5.5,0,0,1,113,71.58Z" fill="#d1d3d4"></path><rect x="65.75" y="181.92" width="132.47" height="10.14" fill="#e6e7e8"></rect><rect x="65.75" y="230.95" width="269.73" height="16.53" fill="#fff"></rect><path d="M335.49,231v16.53H65.75V231H335.49m0-1H65.75a1,1,0,0,0-1,1v16.53a1,1,0,0,0,1,1H335.49a1,1,0,0,0,1-1V231a1,1,0,0,0-1-1Z" fill="#231f20"></path><path d="M143.28,136.29l0,.08-1.95,10.28c-.06.32-.13.66-.19,1l-3.53,18.66s-.37,1.63-.84,3.83c-.23,1.07-.49,2.27-.75,3.5l-.13.08a43.89,43.89,0,0,1-14.8,5.4,44.6,44.6,0,0,1-17.24-.43,44.34,44.34,0,0,1-29.46-22.58c1-9,2.15-16.4,2.55-17.05.52-.84,11-5.38,18.06-8.35l6.27-2.62L102,128h0l.53,0h0l1.54-.09h.05l1.56-.09h0l4-.22h0c2-.1,4.13-.18,6-.22,1.32,0,2.53,0,3.52,0l.93,0h0c.16,0,.31,0,.45,0h0a4.41,4.41,0,0,1,1,.18l.19.07.38.14h0c1.18.45,3.51,1.39,6.21,2.46h0Z" fill="#136ac1"></path><polygon points="103.44 123.2 120.88 123.26 120.57 129.92 108.26 129.92 102.28 127.06 103.44 123.2" fill="#231f20"></polygon><path d="M120.57,130.42H108.26a.54.54,0,0,1-.22,0l-6-2.86a.51.51,0,0,1-.26-.6l1.16-3.85a.5.5,0,0,1,.48-.36h0l17.44.06a.48.48,0,0,1,.36.16.45.45,0,0,1,.14.36l-.31,6.66A.5.5,0,0,1,120.57,130.42Zm-12.2-1H120.1l.26-5.66-16.55-.06-.93,3.09Z" fill="#231f20"></path><path d="M125.42,106.28c.93-2,1.19-4.82,1.54-7,.27-1.66,1-4.33.23-5.94-.5-1-2.18-2.11-3.18-2.64-.5-4.14-4.39-6.68-8.3-6.89A19.49,19.49,0,0,0,108.77,85c-2.21.71-4.56,1.66-5.71,3.66a7.49,7.49,0,0,1-.77,1.28,6.26,6.26,0,0,1-1.35,1c-3.08,2-2.75,4.76-2.36,7.92.42,3.35,1.57,6.67,1.9,10,3.88.24,7.79.57,11.7.51C115.29,109.26,123.76,110,125.42,106.28Z" fill="#fff"></path><path d="M115.36,109.83h-3.17c-3.19,0-6.41-.16-9.52-.37l-2.22-.14a.5.5,0,0,1-.47-.45,41.83,41.83,0,0,0-1-5.14,48.25,48.25,0,0,1-.93-4.82c-.4-3.2-.78-6.22,2.58-8.4l.36-.23a3.59,3.59,0,0,0,.89-.65,3.77,3.77,0,0,0,.48-.79l.22-.41c1.22-2.11,3.6-3.11,6-3.88a19.51,19.51,0,0,1,7.12-1.25c3.88.21,8.07,2.71,8.74,7.07.91.51,2.62,1.57,3.17,2.75.69,1.48.3,3.61,0,5.33-.06.32-.12.62-.16.9s-.13.84-.2,1.27a22.52,22.52,0,0,1-1.39,5.89h0C124.51,109.51,119.31,109.83,115.36,109.83Zm-2.81-1h1.15c3.48,0,10,.13,11.26-2.74a21.88,21.88,0,0,0,1.31-5.62c.07-.44.13-.88.2-1.29s.1-.6.16-.93c.28-1.49.66-3.53.1-4.72a7.5,7.5,0,0,0-3-2.41.52.52,0,0,1-.26-.38c-.47-4-4.3-6.26-7.83-6.45a18.56,18.56,0,0,0-6.76,1.2c-2.2.71-4.38,1.61-5.43,3.43l-.2.37a4.23,4.23,0,0,1-.63,1,4.69,4.69,0,0,1-1.11.85l-.33.21c-2.84,1.84-2.53,4.31-2.14,7.44a44.51,44.51,0,0,0,.92,4.71,47.13,47.13,0,0,1,.93,4.85l1.8.12c3.1.2,6.3.41,9.44.36Zm12.87-2.53h0Z" fill="#231f20"></path><path d="M104.65,106.85c-.53-4.25-7.52-5.54-7.34-.54A7.38,7.38,0,0,0,99,111.06a4.35,4.35,0,0,0,4.67,1.26" fill="#fff"></path><path d="M102.35,113.08a5.11,5.11,0,0,1-3.7-1.68,7.89,7.89,0,0,1-1.84-5.07,3.27,3.27,0,0,1,3-3.74,5,5,0,0,1,5.29,4.2.5.5,0,0,1-1,.12,4,4,0,0,0-4.21-3.32c-1.41.11-2.19,1.1-2.13,2.7a6.9,6.9,0,0,0,1.57,4.43,3.87,3.87,0,0,0,4.12,1.14.51.51,0,0,1,.65.27.52.52,0,0,1-.27.66A4.16,4.16,0,0,1,102.35,113.08Z" fill="#231f20"></path><path d="M119.86,106.85c.54-4.25,7.52-5.54,7.35-.54a7.38,7.38,0,0,1-1.71,4.75,4.35,4.35,0,0,1-4.67,1.26" fill="#fff"></path><path d="M122.16,113.08a4.15,4.15,0,0,1-1.52-.29.5.5,0,1,1,.37-.93,3.87,3.87,0,0,0,4.12-1.14,7,7,0,0,0,1.58-4.43c.05-1.6-.72-2.59-2.14-2.7a4,4,0,0,0-4.21,3.32.5.5,0,1,1-1-.12,5,5,0,0,1,5.28-4.2,3.26,3.26,0,0,1,3.06,3.74,8,8,0,0,1-1.84,5.07A5.13,5.13,0,0,1,122.16,113.08Z" fill="#231f20"></path><path d="M104.11,128a22.52,22.52,0,0,0,8.77,1.84c5.53.19,6.46-1.31,6.46-1.31l-.13-3-.31-6.89-.29-6.44L106,111.8l-.6,5.24-.19,1.7Z" fill="#fff"></path><path d="M113.81,130.37l-1,0a23.07,23.07,0,0,1-9-1.89.53.53,0,0,1-.27-.51l1.85-16.21a.49.49,0,0,1,.52-.44l12.65.44a.5.5,0,0,1,.48.48l.73,16.3a.45.45,0,0,1-.07.28C119.66,129,118.65,130.37,113.81,130.37Zm-9.16-2.66a23.69,23.69,0,0,0,8.25,1.64c4.2.14,5.59-.71,5.93-1l-.7-15.63-11.73-.41Z" fill="#231f20"></path><path d="M105.17,118.74a11.18,11.18,0,0,0,4,3.78c2.67,1.61,6.69,3.44,10,3l-.31-6.89a30.91,30.91,0,0,1-7.29-.2,20.94,20.94,0,0,1-6.25-1.44Z" fill="#231f20"></path><path d="M118.27,126.13c-3.48,0-7.27-1.94-9.33-3.18a11.54,11.54,0,0,1-4.2-4,.48.48,0,0,1-.07-.31l.19-1.7a.51.51,0,0,1,.25-.38.53.53,0,0,1,.46,0,20.37,20.37,0,0,0,6.1,1.4,30.17,30.17,0,0,0,7.18.2.51.51,0,0,1,.38.12.49.49,0,0,1,.17.36l.31,6.89a.5.5,0,0,1-.44.52A8.39,8.39,0,0,1,118.27,126.13Zm-12.58-7.5a10.78,10.78,0,0,0,3.77,3.47c1.65,1,5.74,3.21,9.23,3l-.26-5.89a32,32,0,0,1-6.89-.26,23.43,23.43,0,0,1-5.76-1.21Z" fill="#231f20"></path><path d="M123.33,95.38l-.53,15.35a9.66,9.66,0,0,1-10,9.36l-1.13,0a9.7,9.7,0,0,1-9.06-7.29,9.53,9.53,0,0,1-.3-2.74l.53-15.35s2.4,3.15,9.27,3.09A26.47,26.47,0,0,0,123.33,95.38Z" fill="#fff"></path><path d="M113.1,120.6h-.35l-1.13,0A10.19,10.19,0,0,1,101.78,110l.53-15.35a.52.52,0,0,1,.35-.46.51.51,0,0,1,.55.18s2.38,3,8.86,2.89a26.51,26.51,0,0,0,11-2.32.48.48,0,0,1,.5,0,.48.48,0,0,1,.23.44l-.53,15.35a10.2,10.2,0,0,1-10.2,9.85Zm-9.83-24.8L102.78,110a9.39,9.39,0,0,0,.28,2.6,9.25,9.25,0,0,0,8.6,6.91l1.13,0a9.23,9.23,0,0,0,9.26-7,8.85,8.85,0,0,0,.25-1.84l.5-14.54a28.33,28.33,0,0,1-10.72,2.08C107.27,98.32,104.52,96.79,103.27,95.8Z" fill="#231f20"></path><path d="M122.92,107.38c.94,9.66-5.47,12.87-10.15,12.71l-1.13,0c-10.66-.79-9.36-10-9.25-13.11.47,2.59,1.72,6.74,4,7.21,1.14.25,2.21-2.63,3.29-3.21s4.18-.22,5.85-.1,2.36,2.92,3.22,3.28C119.28,114.35,121.8,111.8,122.92,107.38Z" fill="#d1d3d4"></path><path d="M113.12,120.6h-.37l-1.13,0c-10.42-.78-10-9.28-9.77-12.91,0-.26,0-.51,0-.72a.5.5,0,0,1,.46-.48.51.51,0,0,1,.53.41c.53,2.91,1.78,6.44,3.56,6.82.34.07,1-.9,1.42-1.48a5.46,5.46,0,0,1,1.54-1.69c1-.52,3-.41,5.28-.23l.83.07c1.28.08,2,1.31,2.62,2.29a5.23,5.23,0,0,0,.69,1c.56-.26,2.63-2.44,3.61-6.35a.51.51,0,0,1,.52-.37.48.48,0,0,1,.46.44c.42,4.24-.54,7.73-2.77,10.1A10.38,10.38,0,0,1,113.12,120.6Zm-10.33-10.18c.13,3.78,1.45,8.58,8.89,9.13l1.11,0a9.47,9.47,0,0,0,7.12-2.84,10.27,10.27,0,0,0,2.57-6.55,9.61,9.61,0,0,1-3.2,4.3.94.94,0,0,1-.77.08c-.49-.2-.83-.77-1.23-1.43-.51-.83-1.08-1.77-1.83-1.81l-.85-.07c-1.47-.12-3.93-.32-4.73.11a5.46,5.46,0,0,0-1.19,1.39c-.72,1-1.46,2.08-2.44,1.87C104.58,114.29,103.48,112.32,102.79,110.42Z" fill="#231f20"></path><path d="M112.65,104s3.18,7,1.77,7.15a7.88,7.88,0,0,1-3.41-.92" fill="#fff"></path><path d="M114.18,111.66a8.67,8.67,0,0,1-3.4-1,.49.49,0,0,1-.21-.67.5.5,0,0,1,.67-.21,7.86,7.86,0,0,0,3,.87c.16-.67-.77-3.54-2.09-6.46a.5.5,0,0,1,.91-.41c.84,1.84,2.71,6.26,2,7.45a.82.82,0,0,1-.65.41Z" fill="#231f20"></path><path d="M114.64,115.7a13.58,13.58,0,0,1-5.31-1.23.5.5,0,0,1-.26-.66.5.5,0,0,1,.65-.26c4.62,2,7.09.78,7.12.77a.5.5,0,0,1,.67.21.49.49,0,0,1-.21.67A5.87,5.87,0,0,1,114.64,115.7Z" fill="#231f20"></path><ellipse cx="108.52" cy="102.92" rx="0.67" ry="1.5" fill="#231f20"></ellipse><ellipse cx="117.42" cy="102.92" rx="0.67" ry="1.5" fill="#231f20"></ellipse><polygon points="101.68 126.67 113.53 178.45 116.23 165.58 122.49 126.67 112.88 129.85 101.68 126.67" fill="#231f20"></polygon><path d="M113.53,179a.49.49,0,0,1-.48-.39l-11.86-51.78a.54.54,0,0,1,.14-.48.5.5,0,0,1,.48-.11l11.06,3.14,9.47-3.14a.5.5,0,0,1,.48.1.52.52,0,0,1,.17.46l-6.27,38.91L114,178.55a.49.49,0,0,1-.48.4Zm-11.18-51.57,11.16,48.73,2.23-10.63,6.13-38.08L113,130.33a.51.51,0,0,1-.3,0Z" fill="#231f20"></path><polygon points="108.72 131.47 110.7 135.5 108.57 156.12 113.72 176.52 117.85 156.13 114.61 135.26 116.23 132.1 112.88 129.85 108.72 131.47" fill="#d1d3d4"></polygon><path d="M113.72,177a.49.49,0,0,1-.48-.38l-5.15-20.4a.47.47,0,0,1,0-.17l2.1-20.48-1.91-3.9a.53.53,0,0,1,0-.41.5.5,0,0,1,.29-.28l4.16-1.62a.51.51,0,0,1,.46.06l3.35,2.24a.5.5,0,0,1,.16.65l-1.54,3,3.22,20.7a1.09,1.09,0,0,1,0,.18l-4.13,20.39a.51.51,0,0,1-.48.4Zm-4.64-20.94,4.59,18.18,3.67-18.14-3.22-20.78a.48.48,0,0,1,0-.31l1.41-2.76-2.76-1.86-3.41,1.32,1.74,3.55a.5.5,0,0,1,0,.27Z" fill="#231f20"></path><path d="M120.88,123.26c-.24,0-8.08,6.59-8.08,6.59l4.85,5.65,4.84-8.83Z" fill="#fff"></path><path d="M117.65,136a.46.46,0,0,1-.38-.18l-4.85-5.64a.51.51,0,0,1-.11-.37.49.49,0,0,1,.17-.34c8-6.71,8.17-6.71,8.4-6.71a.49.49,0,0,1,.45.29l1.62,3.4a.53.53,0,0,1,0,.46l-4.84,8.83a.53.53,0,0,1-.39.26Zm-4.14-6.09,4,4.71,4.37-8L120.68,124C119.46,125,116,127.85,113.51,129.91Z" fill="#231f20"></path><path d="M103.44,123.2c.26,0,9.44,6.65,9.44,6.65l-5.6,5.65-5.6-8.83Z" fill="#fff"></path><path d="M107.28,136h-.06a.49.49,0,0,1-.36-.23l-5.6-8.84a.48.48,0,0,1,0-.49L103,123a.51.51,0,0,1,.45-.28c.21,0,.42,0,9.73,6.75a.5.5,0,0,1,.21.36.47.47,0,0,1-.15.39l-5.6,5.65A.47.47,0,0,1,107.28,136Zm-5-9.36,5.11,8.06,4.75-4.79c-2.94-2.12-7.14-5.13-8.47-6Z" fill="#231f20"></path><path d="M101.68,126.67s10.22,45.81,12.09,50.43c0,0-21.5-36.54-21.62-37.25s3.08-3.71,3.08-3.71L92.62,135,95,130.71Z" fill="#136ac1"></path><path d="M113.77,177.6a.51.51,0,0,1-.43-.24c-6.48-11-21.56-36.7-21.69-37.43s.81-1.82,2.7-3.64l-1.93-.87a.46.46,0,0,1-.27-.29.47.47,0,0,1,0-.4l2.35-4.26a.45.45,0,0,1,.18-.18l6.7-4a.45.45,0,0,1,.45,0,.5.5,0,0,1,.3.35c.1.46,10.23,45.82,12.06,50.36a.49.49,0,0,1-.24.63A.44.44,0,0,1,113.77,177.6ZM92.66,139.78c.8,1.7,12.81,22.21,19.45,33.52-3-11.28-9.64-40.8-10.77-45.85l-6,3.62-2,3.66,2.12,1a.52.52,0,0,1,.29.38.49.49,0,0,1-.16.44A17.33,17.33,0,0,0,92.66,139.78Z" fill="#231f20"></path><path d="M122.49,126.67s-6.85,45.81-8.72,50.43c0,0,18.13-36.54,18.25-37.25s-3.08-3.71-3.08-3.71l2.61-1.17-2.36-4.26Z" fill="#136ac1"></path><path d="M113.77,177.6a.52.52,0,0,1-.21,0,.5.5,0,0,1-.26-.64c1.83-4.52,8.63-49.87,8.7-50.33a.52.52,0,0,1,.28-.38.49.49,0,0,1,.47,0l6.7,4a.45.45,0,0,1,.18.18l2.36,4.26a.5.5,0,0,1,0,.4.46.46,0,0,1-.27.29l-1.93.87c1.89,1.82,2.8,3.05,2.7,3.64s-14,28.81-18.3,37.4A.51.51,0,0,1,113.77,177.6Zm9.11-50.12c-.78,5.15-5.09,33.63-7.51,45.26,5.68-11.45,15.52-31.39,16.15-33a17.4,17.4,0,0,0-2.92-3.29.46.46,0,0,1-.15-.44.48.48,0,0,1,.28-.38l2.12-1-2-3.66Z" fill="#231f20"></path><path d="M153.6,154.33a44.44,44.44,0,0,1-15.53,18c-.47-.76-.92-1.51-1.32-2.2l-.11-.19a11,11,0,0,1-1.31-2.81c-.11-1.49,7.46-29.06,7.93-30.77l0-.08s.83-.71,1.9,1C145.59,137.87,149.51,145.23,153.6,154.33Z" fill="#136ac1"></path><path d="M121.07,179.12a44.6,44.6,0,0,1-17.24-.43,10.1,10.1,0,0,1,.14-3.23c.47-1.46,4.26-1.66,4.26-1.66s-3.39-.67-3.68-2.67c-.17-1.16,2.92-.63,5.82.19h0c.56.15,1.11.32,1.63.49l.25.08.32.1c.77.27,1.44.52,1.91.73l.22.1a.34.34,0,0,1,.12.06,1.33,1.33,0,0,1,.24.12,3.65,3.65,0,0,1,.53.41C117,174.65,119.52,177.79,121.07,179.12Z" fill="#fff"></path><path d="M113.54,180.26a44.78,44.78,0,0,1-9.82-1.08.51.51,0,0,1-.39-.45,10.69,10.69,0,0,1,.16-3.42c.31-.95,1.51-1.45,2.65-1.72a3.42,3.42,0,0,1-2.08-2.39.91.91,0,0,1,.3-.87c.27-.23,1.06-.92,6.11.5h0c.57.15,1.13.32,1.66.49l.27.09.18.06.1,0c.9.31,1.54.56,2,.75l.22.1a.6.6,0,0,1,.16.08,1.46,1.46,0,0,1,.28.14,4.22,4.22,0,0,1,.58.46c.69.61,1.61,1.63,2.59,2.7a35.91,35.91,0,0,0,2.88,3,.52.52,0,0,1,.15.51.48.48,0,0,1-.4.36A45,45,0,0,1,113.54,180.26Zm-9.24-2a44.16,44.16,0,0,0,15.68.51c-.68-.68-1.45-1.54-2.21-2.38-1-1-1.85-2-2.5-2.62a3.49,3.49,0,0,0-.46-.36l-.17-.09a.3.3,0,0,1-.11-.06l-.22-.09c-.43-.2-1-.43-1.89-.73l-.57-.17c-.5-.17-1-.33-1.57-.48h0c-3.78-1.07-5-.88-5.21-.72.22,1.33,2.46,2.06,3.31,2.23a.5.5,0,0,1,.4.53.5.5,0,0,1-.47.46c-1.43.08-3.56.53-3.81,1.31A8.34,8.34,0,0,0,104.3,178.28Z" fill="#231f20"></path><path d="M138,172.89a.52.52,0,0,1-.42-.22l-1.28-1.93a.5.5,0,0,1,.84-.56l1.28,1.93a.51.51,0,0,1-.14.7A.57.57,0,0,1,138,172.89Z" fill="#231f20"></path><path d="M135.87,174.22h-.1a.5.5,0,0,1-.39-.59c.23-1.1.49-2.36.76-3.73a.06.06,0,0,0,0,0c2-9.95,3.55-17.45,4.48-22.29l.12-.63.07-.37a.5.5,0,0,1,1,.18l-.07.38-.12.62c-.93,4.84-2.44,12.34-4.47,22.28v0c-.28,1.38-.54,2.65-.77,3.76A.5.5,0,0,1,135.87,174.22Z" fill="#231f20"></path><path d="M88.82,172.71a.5.5,0,0,1-.49-.39c-1.63-7.45-8.5-29.09-8.57-29.31a.5.5,0,1,1,1-.3c.07.22,6.94,21.9,8.59,29.39a.5.5,0,0,1-.38.6Z" fill="#231f20"></path></g></svg>